<svg viewBox="0 0 24 24" xmlns="http://www.w3.org/2000/svg">
  <path d="M.057 24l1.687-6.163c-1.041-1.804-1.588-3.849-1.587-5.946C.06 5.348 5.397.01 12.008.01c3.202.001 6.212 1.246 8.477 3.513 2.262 2.268 3.507 5.28 3.505 8.484-.004 6.657-5.34 11.997-11.953 11.997-2.005-.001-3.973-.502-5.717-1.454L0 24zm6.59-4.846c1.6.95 3.188 1.449 4.825 1.451 5.436 0 9.86-4.37 9.864-9.799.002-2.63-1.023-5.101-2.885-6.97C16.59 1.968 14.117 1.05 11.48 1.05c-5.44 0-9.865 4.371-9.87 9.8-.002 1.83.5 3.606 1.455 5.176l-.99 3.61 3.733-.967-.22-.13zm12.574-6.84c-.305-.152-1.808-.89-2.087-.992-.28-.103-.483-.153-.686.152-.203.305-.787.992-.965 1.2-.177.203-.355.228-.66.076-.304-.152-1.284-.473-2.446-1.51-1-.892-1.676-1.997-1.873-2.335-.198-.339-.022-.521.148-.69.153-.153.305-.355.457-.533.152-.178.203-.305.305-.508.102-.203.05-.381-.026-.533-.076-.152-.686-1.653-.94-2.261-.247-.595-.503-.514-.686-.523-.178-.008-.38-.01-.584-.01-.203 0-.533.076-.812.38-.28.305-1.066 1.042-1.066 2.54 0 1.498 1.09 2.946 1.242 3.149.152.203 2.146 3.277 5.198 4.6.726.313 1.293.5 1.734.64.73.232 1.393.197 1.917.12.584-.087 1.808-.738 2.062-1.45.254-.712.254-1.32.178-1.45-.076-.13-.28-.204-.585-.356z"/>
</svg>
